{"title":"Cat City 2008 DvDRip.H264.Feel-Free","uid":5867610,"size":778612137,"categoryP":"video","categoryS":"movies","magnet":"?xt=urn:btih:8c155f0779738bbf7268d297b6f06f31f156d507&amp;dn=Cat+City+2008+DvDRip.H264.Feel-Free&amp;tr=udp%3A%2F%2Ftracker.openbittorrent.com%3A80&amp;tr=udp%3A%2F%2Fopen.demonii.com%3A1337&amp;tr=udp%3A%2F%2Ftracker.coppersurfer.tk%3A6969&amp;tr=udp%3A%2F%2Fexodus.desync.com%3A6969","seeders":0,"leechers":2,"uploader":"neon","files":-1,"time":1286269071,"description":"\n\nA tale of infidelity, deceit, greed, and murder\n\nGenre:Thriller\nLanguage:English\n &lt;a href=&quot; http://www.imdb.com/title/tt1135085/&quot; rel=&quot;nofollow&quot; target=&quot;_NEW&quot;&gt; http://www.imdb.com/title/tt1135085/&lt;/a&gt;\nSource:DVD\n &lt;a href=&quot;\nhttp://www.starshare.ro/bitbucket/Cat.City.2008.DvDRip.H264.Feel-Free.mp4_snapshot_00.15.15_%5B2010.10.05_08.12.16%5D.jpg&quot; rel=&quot;nofollow&quot; target=&quot;_NEW&quot;&gt;\nhttp://www.starshare.ro/bitbucket/Cat.City.2008.DvDRip.H264.Feel-Free.mp4_snapshot_00.15.15_%5B2010.10.05_08.12.16%5D.jpg&lt;/a&gt;\n &lt;a href=&quot;\nhttp://www.starshare.ro/bitbucket/Cat.City.2008.DvDRip.H264.Feel-Free.mp4_snapshot_00.19.04_%5B2010.10.05_08.12.19%5D.jpg&quot; rel=&quot;nofollow&quot; target=&quot;_NEW&quot;&gt;\nhttp://www.starshare.ro/bitbucket/Cat.City.2008.DvDRip.H264.Feel-Free.mp4_snapshot_00.19.04_%5B2010.10.05_08.12.19%5D.jpg&lt;/a&gt;\n &lt;a href=&quot;\nhttp://www.starshare.ro/bitbucket/Cat.City.2008.DvDRip.H264.Feel-Free.mp4_snapshot_00.42.34_%5B2010.10.05_08.12.23%5D.jpg&quot; rel=&quot;nofollow&quot; target=&quot;_NEW&quot;&gt;\nhttp://www.starshare.ro/bitbucket/Cat.City.2008.DvDRip.H264.Feel-Free.mp4_snapshot_00.42.34_%5B2010.10.05_08.12.23%5D.jpg&lt;/a&gt;\n &lt;a href=&quot;\nhttp://www.youtube.com/watch?v=Em5FVzAgw4c&amp;feature=player_embedded&quot; rel=&quot;nofollow&quot; target=&quot;_NEW&quot;&gt;\nhttp://www.youtube.com/watch?v=Em5FVzAgw4c&amp;feature=player_embedded&lt;/a&gt;\n\nGeneral\nComplete name :Cat.City.2008.DvDRip.H264.Feel-Free\nFormat : MPEG-4\nFormat profile : Base Media\nCodec ID : isom\nFile size : 742 MiB\nDuration : 1h 30mn\nOverall bit rate : 1 152 Kbps\nVideo #2\nCodec ID : avc1\nCodec ID/Info : Advanced Video Coding\nDuration : 1h 30mn\nBit rate mode : Variable\nBit rate : 985 Kbps\nWidth : 720 pixels\nHeight : 384 pixels\nDisplay aspect ratio : 1.875\nFrame rate mode : Constant\nFrame rate : 23.976 fps\nOriginal frame rate : 23.000 fps\nResolution : 24 bits\nColorimetry : 4:2:0\nScan type : Progressive\nBits/(Pixel*Frame) : 0.149\nStream size : 635 MiB (86%)\nAudio #1\nID : 1\nFormat : AAC\nFormat/Info : Advanced Audio Codec\nFormat version : Version 4\nFormat profile : LC\nFormat settings, SBR : No\nCodec ID : 40\nDuration : 1h 30mn\nBit rate mode : Constant\nBit rate : 160 Kbps\nChannel(s) : 2 channels\nChannel positions : L R\nSampling rate : 48.0 KHz\nResolution : 16 bits\nStream size : 103 MiB (14%)","torrent":{"xt":"urn:btih:8c155f0779738bbf7268d297b6f06f31f156d507","amp;dn":"Cat+City+2008+DvDRip.H264.Feel-Free","amp;tr":["udp%3A%2F%2Ftracker.openbittorrent.com%3A80","udp%3A%2F%2Fopen.demonii.com%3A1337","udp%3A%2F%2Ftracker.coppersurfer.tk%3A6969","udp%3A%2F%2Fexodus.desync.com%3A6969"],"infoHash":"8c155f0779738bbf7268d297b6f06f31f156d507","infoHashBuffer":{"type":"Buffer","data":[140,21,95,7,121,115,139,191,114,104,210,151,182,240,111,49,241,86,213,7]},"announce":[],"urlList":[]}}